HIERARCHY
ROOT Hips
{
 OFFSET 0.000000 0.000000 0.000000
 CHANNELS 6 Xposition Yposition Zposition Yrotation Xrotation Zrotation
 JOINT Chest
 {
  OFFSET 0.000000 10.197069 -1.133008
  CHANNELS 3 Yrotation Xrotation Zrotation
  JOINT Chest2
  {
   OFFSET 0.000000 11.355210 0.000000
   CHANNELS 3 Yrotation Xrotation Zrotation
   JOINT Chest3
   {
    OFFSET 0.000000 10.366458 0.004940
    CHANNELS 3 Yrotation Xrotation Zrotation
    JOINT Chest4
    {
     OFFSET 0.000000 10.354886 0.004944
     CHANNELS 3 Yrotation Xrotation Zrotation
     JOINT Neck
     {
      OFFSET 0.000000 14.506032 0.000000
      CHANNELS 3 Yrotation Xrotation Zrotation
      JOINT Head
      {
       OFFSET 0.000000 9.639094 -0.010623
       CHANNELS 3 Yrotation Xrotation Zrotation
       End Site
       {
        OFFSET 0.000000 17.934630 -0.001429
       }
      }
     }
     JOINT RightCollar
     {
      OFFSET -3.145186 8.128426 0.000000
      CHANNELS 3 Yrotation Xrotation Zrotation
      JOINT RightShoulder
      {
       OFFSET -14.592063 0.000000 0.000000
       CHANNELS 3 Yrotation Xrotation Zrotation
       JOINT RightElbow
       {
        OFFSET -31.213829 0.000000 0.000000
        CHANNELS 3 Yrotation Xrotation Zrotation
        JOINT RightWrist
        {
         OFFSET -25.520924 0.000000 0.000000
         CHANNELS 3 Yrotation Xrotation Zrotation
         End Site
         {
          OFFSET -19.069033 0.000000 0.000000
         }
        }
       }
      }
     }
     JOINT LeftCollar
     {
      OFFSET 3.145186 8.128426 0.000000
      CHANNELS 3 Yrotation Xrotation Zrotation
      JOINT LeftShoulder
      {
       OFFSET 14.592063 0.000000 0.000000
       CHANNELS 3 Yrotation Xrotation Zrotation
       JOINT LeftElbow
       {
        OFFSET 31.213829 0.000000 0.000000
        CHANNELS 3 Yrotation Xrotation Zrotation
        JOINT LeftWrist
        {
         OFFSET 25.520924 0.000000 0.000000
         CHANNELS 3 Yrotation Xrotation Zrotation
         End Site
         {
          OFFSET 19.069033 0.000000 0.000000
         }
        }
       }
      }
     }
    }
   }
  }
 }
 JOINT RightHip
 {
  OFFSET -8.364037 -0.010941 0.001216
  CHANNELS 3 Yrotation Xrotation Zrotation
  JOINT RightKnee
  {
   OFFSET 0.000000 -43.586402 0.001168
   CHANNELS 3 Yrotation Xrotation Zrotation
   JOINT RightAnkle
   {
    OFFSET 0.000000 -42.569313 0.001969
    CHANNELS 3 Yrotation Xrotation Zrotation
    JOINT RightToe
    {
     OFFSET 0.000000 -6.445121 14.513325
     CHANNELS 3 Yrotation Xrotation Zrotation
     End Site
     {
      OFFSET 0.000000 -1.530243 6.458931
     }
    }
   }
  }
 }
 JOINT LeftHip
 {
  OFFSET 8.364037 -0.013239 0.001471
  CHANNELS 3 Yrotation Xrotation Zrotation
  JOINT LeftKnee
  {
   OFFSET 0.000000 -43.586402 0.001168
   CHANNELS 3 Yrotation Xrotation Zrotation
   JOINT LeftAnkle
   {
    OFFSET 0.000000 -42.569313 0.001969
    CHANNELS 3 Yrotation Xrotation Zrotation
    JOINT LeftToe
    {
     OFFSET 0.000000 -6.445121 14.513325
     CHANNELS 3 Yrotation Xrotation Zrotation
     End Site
     {
      OFFSET 0.000000 -1.530243 6.458931
     }
    }
   }
  }
 }
}
MOTION
Frames: 8
Frame Time: 0.016667
871.895448 93.750926 -142.761935 33.826417 0.885641 -0.305383 -1.005143 3.859167 0.743769 -0.487132 -4.112668 0.339456 -0.486125 1.707554 0.289983 -0.342975 7.117078 0.220441 -5.192943 12.116485 1.387149 -10.494665 -13.211620 4.831000 2.475433 1.955806 7.840402 45.470030 -1.446670 67.515048 7.705868 -30.787874 -1.904599 -10.885579 5.311038 2.513483 -0.202054 4.134727 -6.691453 -30.480208 -10.480023 -71.525777 -17.217787 -17.860350 1.403877 4.311790 -4.174196 -0.459258 -10.707822 2.138727 4.987353 4.011311 -0.617618 1.087205 -5.114885 -4.751938 -6.849359 -0.000000 0.000000 -0.000000 2.357354 -23.339880 -0.058243 -2.592177 64.046697 -4.155157 0.304759 16.338160 -0.265596 1.120737 -4.745089 2.385493
872.686212 93.732224 -141.351846 33.252871 1.009746 -0.061501 -0.690195 3.868388 0.606026 -0.339609 -4.107903 0.275525 -0.338914 1.712425 0.241033 -0.236239 7.120840 0.183054 -5.184925 12.085426 1.354545 -10.468765 -13.273251 4.768973 2.529307 1.956053 7.710649 46.584450 -2.103803 66.828745 10.089908 -31.222623 -2.956566 -10.492335 5.045044 2.373016 -0.513420 4.062961 -6.863262 -28.794147 -9.970871 -72.152363 -14.905079 -16.814566 1.057430 4.342344 -4.074024 -0.747083 -10.100495 3.209228 4.583394 3.587879 -1.086081 1.184780 -4.642834 -5.436674 -6.656188 0.000000 -0.000000 0.000000 1.346145 -25.188120 -0.202376 -2.546648 62.682083 -5.092454 0.881632 12.732827 0.223934 0.975023 -6.005993 2.564553
873.470514 93.684243 -139.948585 32.623734 1.150426 0.179668 -0.362155 3.878832 0.458717 -0.185743 -4.102742 0.207219 -0.185370 1.717659 0.188354 -0.125031 7.124856 0.142830 -5.163782 12.045784 1.329680 -10.421880 -13.351165 4.717120 2.586078 1.971871 7.576105 47.666702 -2.713123 66.084525 12.663199 -31.783722 -4.018148 -10.093161 4.726026 2.236344 -0.860245 3.978446 -7.045960 -27.013517 -9.407525 -72.686467 -12.581664 -15.853463 0.700510 4.423622 -3.967606 -1.162843 -9.477269 4.272370 4.182534 2.976849 -1.577006 1.298142 -3.967564 -6.072425 -6.476867 -0.000000 0.000000 0.000000 0.141647 -26.778184 -0.160332 -1.785817 60.430280 -5.427026 1.722279 9.228581 0.428776 0.680100 -7.021096 2.386898
874.264571 93.600407 -138.535155 31.980698 1.312424 0.386801 -0.042528 3.881888 0.320451 -0.036095 -4.101070 0.142996 -0.036033 1.719361 0.139330 -0.016706 7.126187 0.105376 -5.138329 11.992312 1.310078 -10.370253 -13.454509 4.674921 2.631223 1.966898 7.461632 48.625576 -3.287163 65.345144 15.245189 -32.127105 -5.091793 -9.716454 4.452411 2.132515 -1.181864 3.912831 -7.203242 -25.288913 -8.823758 -73.187792 -10.293390 -14.968040 0.464873 4.508598 -3.867075 -1.596305 -8.945084 5.320592 3.828177 2.447886 -2.036006 1.368866 -3.309107 -6.665826 -6.291577 0.000000 -0.000000 -0.000000 -1.107938 -28.049156 0.047743 -0.180899 57.421140 -5.070252 2.518819 6.333601 0.687489 0.430799 -7.120725 2.051040
875.072587 93.476568 -137.110876 31.317769 1.495593 0.559069 0.269030 3.878636 0.191860 0.109450 -4.102395 0.083147 0.109210 1.718022 0.094262 0.088845 7.125212 0.070922 -5.112600 11.916610 1.295419 -10.322228 -13.598495 4.644326 2.653170 1.921159 7.380562 49.424749 -3.841112 64.626531 17.785554 -32.118041 -6.131348 -9.357407 4.248759 2.117799 -1.458715 3.888119 -7.317874 -23.681275 -8.224803 -73.680892 -8.058263 -14.183630 0.389195 4.598693 -3.790198 -2.057532 -8.535321 6.357973 3.524723 2.100358 -2.472422 1.356720 -2.733619 -7.210611 -6.085929 0.000459 -0.010944 -0.038132 -2.540222 -28.981151 0.509815 2.468444 53.652599 -4.051865 3.148751 4.293218 1.102188 0.270301 -5.595580 1.560933
875.890359 93.316875 -135.676429 30.640805 1.699080 0.696464 0.572258 3.867361 0.072219 0.250809 -4.107437 0.027365 0.250273 1.712935 0.052837 0.191531 7.121405 0.039233 -5.082610 11.827009 1.286044 -10.269563 -13.768043 4.623423 2.663714 1.854274 7.319632 50.100229 -4.368176 63.922738 20.296455 -31.903658 -7.103770 -9.020173 4.078937 2.145103 -1.710311 3.882607 -7.407663 -22.129711 -7.606894 -74.145813 -5.849227 -13.494634 0.404675 4.694068 -3.714551 -2.539700 -8.212144 7.377169 3.262437 1.832963 -2.880157 1.293226 -2.175241 -7.713839 -5.872538 0.000734 -0.021941 -0.076250 -4.013631 -29.574850 1.110162 5.506394 49.107162 -2.786127 3.693842 2.851801 1.525982 0.148020 -3.144636 0.949307
876.721489 93.127192 -134.216859 30.008991 1.925049 0.769220 0.845053 3.835030 -0.021562 0.377227 -4.121925 -0.016600 0.376415 1.698381 0.021710 0.283794 7.110484 0.015375 -5.045077 11.743387 1.280549 -10.203508 -13.926799 4.606028 2.683574 1.789208 7.263690 50.668826 -4.852075 63.266174 22.666097 -31.565482 -7.985191 -8.749291 3.955531 2.098680 -1.934537 3.862547 -7.489504 -20.602411 -6.986235 -74.577291 -3.645407 -12.856762 0.480925 4.742227 -3.616239 -2.907751 -7.977332 8.352520 3.064423 1.614519 -3.183433 1.214469 -1.656470 -8.201886 -5.668492 0.000000 0.000000 -0.000000 -4.937426 -29.821333 1.488090 7.819360 43.905436 -1.737071 4.083619 1.768935 1.894484 0.064945 -1.212012 0.472938
877.563196 92.904576 -132.731067 29.460957 2.194260 0.765509 1.071307 3.768630 -0.080940 0.481070 -4.151574 -0.044755 0.480011 1.668656 0.004100 0.360155 7.088181 0.001810 -5.000176 11.672193 1.278037 -10.123387 -14.062888 4.589813 2.720972 1.742919 7.209254 51.119553 -5.309936 62.654703 24.868940 -31.095713 -8.752769 -8.570713 3.912074 1.912304 -2.126125 3.820210 -7.571689 -19.105398 -6.360627 -74.970348 -1.406829 -12.253849 0.609657 4.716019 -3.509948 -3.102120 -7.831355 9.259237 2.960783 1.467657 -3.372625 1.117153 -1.245746 -8.651668 -5.496642 0.000676 0.174163 0.306916 -5.047910 -29.724517 1.460172 9.112766 37.915370 -0.960528 4.398696 1.114800 2.195720 0.022488 -0.414532 0.217321
